<?xml version="1.0"?>
<svg xmlns="http://www.w3.org/2000/svg" xmlns:xlink="http://www.w3.org/1999/xlink" xmlns:svgjs="http://svgjs.com/svgjs" version="1.1" width="512" height="512" x="0" y="0" viewBox="0 0 512 512" style="enable-background:new 0 0 512 512" xml:space="preserve" class=""><g><path xmlns="http://www.w3.org/2000/svg" d="m280 280h80a8.009 8.009 0 0 0 8-8v-144a24.028 24.028 0 0 0 -24-24h-48a24.028 24.028 0 0 0 -24 24v144a8.009 8.009 0 0 0 8 8zm8-144a8 8 0 0 1 16 0v64a8 8 0 0 1 -16 0z" fill="#fed136" data-original="#000000" style=""/><path xmlns="http://www.w3.org/2000/svg" d="m384 272a24.028 24.028 0 0 1 -24 24h-80a24.028 24.028 0 0 1 -24-24v-111.169a56.193 56.193 0 0 0 -16 39.169v280h160v-280a56.193 56.193 0 0 0 -16-39.169zm-88 56h48a8 8 0 0 1 0 16h-48a8 8 0 0 1 0-16zm64 48h-80a8 8 0 0 1 0-16h80a8 8 0 0 1 0 16z" fill="#fed136" data-original="#000000" style=""/><path xmlns="http://www.w3.org/2000/svg" d="m166.479 320h-124.958a8 8 0 0 0 -7.967 8.724l5.025 55.276h130.842l5.025-55.276a8 8 0 0 0 -7.967-8.724z" fill="#fed136" data-original="#000000" style=""/><path xmlns="http://www.w3.org/2000/svg" d="m46.645 472.724a7.96 7.96 0 0 0 7.966 7.276h98.778a7.959 7.959 0 0 0 7.966-7.275l6.612-72.725h-127.934z" fill="#fed136" data-original="#000000" style=""/><path xmlns="http://www.w3.org/2000/svg" d="m128.326 128h-48.652l-7.334 176h63.32z" fill="#fed136" data-original="#000000" style=""/><path xmlns="http://www.w3.org/2000/svg" d="m192 80c19.01-11.79 22.946-29.344 24-48-.164 17.638 6.346 37.835 24 48-16.486 11.341-22.478 33.146-24 48-1.522-14.854-7.514-36.659-24-48z" fill="#fed136" data-original="#000000" style=""/><path xmlns="http://www.w3.org/2000/svg" d="m432 168c19.01-11.79 22.946-29.344 24-48-.164 17.638 6.346 37.835 24 48-16.486 11.341-22.478 33.146-24 48-1.522-14.854-7.514-36.659-24-48z" fill="#fed136" data-original="#000000" style=""/></g></svg>
